PathFileType	4	(X/Y/Z)	traj.trc
DataRate	CameraRate	NumFrames	NumMarkers	Units	OrigDataRate	OrigDataStartFrame	OrigNumFrames
30.00	30.00	77	1	mm	30.00	1	200
Frame#	Time	wrist		
		X1	Y1	Z1

0	0.0	470.6178307533264	466.25763177871704	-57.04420804977417
1	0.020100502512562814	470.6178307533264	466.25763177871704	-57.04420804977417
2	0.04020100502512563	470.6176979305064	466.25843265772636	-57.044204118035935
3	0.06030150753768844	470.6170391694331	466.2624047757392	-57.044184617801726
4	0.08040201005025126	470.6153418534357	466.27263904688726	-57.04413437491274
5	0.10050251256281408	470.61210922164406	466.29213077991125	-57.04403868456368
6	0.12060301507537688	470.60686020636456	466.3237806587284	-57.043883306488894
7	0.1407035175879397	470.59912927045696	466.37039572300074	-57.043654460148446
8	0.16080402010050251	470.5884662447104	466.43469034870344	-57.04333881991429
9	0.18090452261306533	470.5744361652202	466.5192872286926	-57.04292351025633
10	0.20100502512562815	470.55661911076396	466.62671835327353	-57.04239610092859
11	0.22110552763819097	470.5346100401782	466.75942599076905	-57.04174460215531
12	0.24120603015075376	470.5080186297345	466.9197636680872	-57.040957459817044
13	0.2613065326633166	470.4764691105162	467.10999715128975	-57.04002355063681
14	0.2814070351758794	470.4396001057945	467.33230542615996	-57.0389321773662
15	0.30150753768844224	470.39706446840523	467.58878167877106	-57.037673063971475
16	0.32160804020100503	470.348529118125	467.881434276054	-57.03623635081973
17	0.3417085427135678	470.29367487904744	468.2121877463659	-57.034612589864935
18	0.36180904522613067	470.2321963169602	468.58288376005794	-57.03279273983415
19	0.38190954773869346	470.1638015767208	468.9952821100436	-57.03076816141357
20	0.4020100502512563	470.0882122196331	469.45106169236675	-57.02853061243466
21	0.4221105527638191	470.0051630608241	469.95182148676963	-57.02607224306029
22	0.44221105527638194	469.9144020066198	470.4990815372612	-57.02338559097085
23	0.4623115577889447	469.81568989192215	471.0942839326851	-57.020463576550334
24	0.4824120603015075	469.708800317585	471.7387937872878	-57.01729949807251
25	0.5025125628140703	469.59351948779073	472.43390022128676	-57.013887026886984
26	0.5226130653266332	469.4696460474267	473.1808173414385	-57.010220202605375
27	0.542713567839196	469.3369909194615	473.98068522160673	-57.006293428287385
28	0.5628140703517588	469.1953771423215	474.83457088333034	-57.002101465626936
29	0.5829145728643216	469.0446397072671	475.7434692763919	-56.997639430138285
30	0.6030150753768845	468.8846253957694	476.70830425938533	-56.992902786342164
31	0.6231155778894473	468.71519261688616	477.72992958028414	-56.98788734295185
32	0.6432160804020101	468.53621124463876	478.80912985700985	-56.98258924805933
33	0.6633165829145728	468.34756245538824	479.9466215579997	-56.977004984321376
34	0.6834170854271356	468.1491385652116	481.143053982775	-56.971131364145705
35	0.7035175879396985	467.9408428672788	482.399010242509	-56.964965524877094
36	0.7236180904522613	467.72258946922835	483.7150082405955	-56.95850492398345
37	0.7437185929648241	467.4943031305444	485.0915016532166	-56.951747334241965
38	0.7638190954773869	467.25591909993284	486.52888090991047	-56.94469083892525
39	0.7839195979899498	467.0073829526977	488.02747417414037	-56.937333826987405
40	0.8040201005025126	466.74865042811746	489.5875483238621	-56.92967498825019
41	0.8241206030150754	466.47968726682194	491.2093099320921	-56.921713308589084
42	0.8442211055276382	466.20046904816815	492.892906247476	-56.91344806511947
43	0.864321608040201	465.91098102761686	494.6384261748563	-56.904878821382695
44	0.8844221105527639	465.61121797410925	496.44590125584085	-56.89600542253222
45	0.9045226130653267	465.30118400744294	498.31530664937065	-56.88682799051971
46	0.9246231155778895	464.98089243564874	500.24656211228813	-56.87734691928121
47	0.9447236180904522	464.6503655923667	502.23953297990533	-56.867562869923184
48	0.964824120603015	464.30963467422305	504.2940311465718	-56.85747676590869
49	0.9849246231155779	463.95873957820584	506.4098160462429	-56.84708978824349
50	1.0050251256281406	463.5977287390421	508.58659563304786	-56.836403370662126
51	1.0251256281407035	463.2266589665739	510.82402736185793	-56.82541919481411
52	1.0452261306532664	462.84559528313457	513.1217191688545	-56.81413918544997
53	1.065326633165829	462.45461076092556	515.479230452097	-56.80256550560741
54	1.085427135678392	462.05378635939235	517.8960730520915	-56.79070055179743
55	1.105527638190955	461.6432107626015	520.3717122323583	-56.7785469491904
56	1.1256281407035176	461.2229802166163	522.9055676600001	-56.76610754680225
57	1.1457286432160805	460.79319836687364	525.4970143862707	-56.75338541268052
58	1.1658291457286432	460.3539760955604	528.1453838271427	-56.74038382909052
59	1.185929648241206	459.9054313589898	530.8499647438751	-56.7271062877014
60	1.206030150753769	459.44768902497765	533.6100042235827	-56.713556484772354
61	1.2261306532663316	458.9808807102189	536.4247086598025	-56.69973831633864
62	1.2462311557788945	458.5051446176642	539.2932447330637	-56.68565587339775
63	1.2663316582914572	458.02062537389605	542.2147403914545	-56.67131343709554
64	1.2864321608040201	457.52747386650515	545.1882858311903	-56.65671547391232
65	1.306532663316583	457.02584708146725	548.212934477183	-56.641866630848966
66	1.3266331658291457	456.51590794051907	551.2877039636071	-56.62677173061308
67	1.3467336683417086	455.99782513853484	554.4115771144698	-56.611435766805045
68	1.3668341708542713	455.471772980903	557.5835029241779	-56.595863899104195
69	1.3869346733668342	454.9379312209021	560.8023975381066	-56.58006144845492
70	1.407035175879397	454.3964848970777	564.0671452331668	-56.56403389225278
71	1.4271356783919598	453.8476241706185	567.3765993983743	-56.54778685953061
72	1.4472361809045227	453.29154416273263	570.729583515417	-56.53132612614465
73	1.4673366834170853	452.72844479202456	574.1248921392232	-56.514657609960686
74	1.4874371859296482	452.1585306118709	577.5612918785304	-56.49778736604012
75	1.5075376884422111	451.5820106477971	581.0375223764523	-56.48072158182612
76	1.5276381909547738	450.999098234854	584.552297291048	-56.463466572329736
